<svg height="35" viewBox="0 0 35 35" width="35" xmlns="http://www.w3.org/2000/svg"><path d="m3.5 8.167969c-.421875-.007813-.8125.214843-1.023438.578125-.210937.363281-.210937.8125 0 1.175781.210938.363281.601563.585937 1.023438.578125h28c.421875.007812.8125-.214844 1.023438-.578125.210937-.363281.210937-.8125 0-1.175781-.210938-.363282-.601563-.585938-1.023438-.578125zm0 8.164062c-.421875-.003906-.8125.214844-1.023438.578125-.210937.363282-.210937.816406 0 1.179688.210938.363281.601563.582031 1.023438.578125h28c.421875.003906.8125-.214844 1.023438-.578125.210937-.363282.210937-.816406 0-1.179688-.210938-.363281-.601563-.582031-1.023438-.578125zm0 8.167969c-.421875-.007812-.8125.214844-1.023438.578125-.210937.363281-.210937.8125 0 1.175781.210938.363282.601563.585938 1.023438.578125h28c.421875.007813.8125-.214843 1.023438-.578125.210937-.363281.210937-.8125 0-1.175781-.210938-.363281-.601563-.585937-1.023438-.578125zm0 0" fill="#f2e1a0"/></svg>